<svg width="350" height="40" viewBox="0 0 350 40" fill="none" xmlns="http://www.w3.org/2000/svg">
<rect y="21" width="3" height="19" rx="1.5" fill="#4208B3"/>
<rect x="8" y="18" width="3" height="22" rx="1.5" fill="#4208B3"/>
<rect x="16" y="34" width="3" height="6" rx="1.5" fill="#4208B3"/>
<rect x="24" y="11" width="3" height="29" rx="1.5" fill="#4208B3"/>
<rect x="32" y="35" width="3" height="5" rx="1.5" fill="#4208B3"/>
<rect x="40" y="16" width="3" height="24" rx="1.5" fill="#4208B3"/>
<rect x="48" y="22" width="3" height="18" rx="1.5" fill="#4208B3"/>
<rect x="56" y="11" width="3" height="29" rx="1.5" fill="#4208B3"/>
<rect x="64" y="31" width="3" height="9" rx="1.5" fill="#4208B3"/>
<rect x="72" y="17" width="3" height="23" rx="1.5" fill="#4208B3"/>
<rect x="80" y="36" width="3" height="4" rx="1.5" fill="#4208B3"/>
<rect x="88" y="11" width="3" height="29" rx="1.5" fill="#4208B3"/>
<rect x="96" y="31" width="3" height="9" rx="1.5" fill="#4208B3"/>
<rect x="104" y="24" width="3" height="16" rx="1.5" fill="#4208B3"/>
<rect x="112" y="28" width="3" height="12" rx="1.5" fill="#4208B3"/>
<rect x="120" y="19" width="3" height="21" rx="1.5" fill="#4208B3"/>
<rect x="128" y="31" width="3" height="9" rx="1.5" fill="#4208B3"/>
<rect x="136" y="24" width="3" height="16" rx="1.5" fill="#4208B3"/>
<rect x="144" y="28" width="3" height="12" rx="1.5" fill="#4208B3"/>
<rect x="152" y="11" width="3" height="29" rx="1.5" fill="#4208B3"/>
<path fill-rule="evenodd" clip-rule="evenodd" d="M175 9.58331C171.353 9.58331 167.856 11.032 165.277 13.6106C162.699 16.1892 161.25 19.6866 161.25 23.3333V33.3333C161.25 34.0237 160.69 34.5833 160 34.5833C159.31 34.5833 158.75 34.0237 158.75 33.3333V23.3333C158.75 19.0235 160.462 14.8903 163.51 11.8428C166.557 8.79536 170.69 7.08331 175 7.08331C179.31 7.08331 183.443 8.79536 186.49 11.8428C189.538 14.8903 191.25 19.0235 191.25 23.3333V33.3333C191.25 34.0237 190.69 34.5833 190 34.5833C189.31 34.5833 188.75 34.0237 188.75 33.3333V23.3333C188.75 19.6866 187.301 16.1892 184.723 13.6106C182.144 11.032 178.647 9.58331 175 9.58331Z" fill="#4208B3"/>
<path fill-rule="evenodd" clip-rule="evenodd" d="M158.75 26.6667C158.75 25.9763 159.31 25.4167 160 25.4167H165C166.216 25.4167 167.381 25.8996 168.241 26.7591C169.1 27.6187 169.583 28.7844 169.583 30V35C169.583 36.2156 169.1 37.3814 168.241 38.2409C167.381 39.1005 166.216 39.5834 165 39.5834H163.333C162.118 39.5834 160.952 39.1005 160.092 38.2409C159.233 37.3814 158.75 36.2156 158.75 35V26.6667ZM161.25 27.9167V35C161.25 35.5526 161.469 36.0825 161.86 36.4732C162.251 36.8639 162.781 37.0834 163.333 37.0834H165C165.553 37.0834 166.082 36.8639 166.473 36.4732C166.864 36.0825 167.083 35.5526 167.083 35V30C167.083 29.4475 166.864 28.9176 166.473 28.5269C166.082 28.1362 165.553 27.9167 165 27.9167H161.25ZM185 27.9167C184.447 27.9167 183.918 28.1362 183.527 28.5269C183.136 28.9176 182.917 29.4475 182.917 30V35C182.917 35.5526 183.136 36.0825 183.527 36.4732C183.918 36.8639 184.447 37.0834 185 37.0834H186.667C187.219 37.0834 187.749 36.8639 188.14 36.4732C188.531 36.0825 188.75 35.5526 188.75 35V27.9167H185ZM181.759 26.7591C182.619 25.8996 183.784 25.4167 185 25.4167H190C190.69 25.4167 191.25 25.9763 191.25 26.6667V35C191.25 36.2156 190.767 37.3814 189.908 38.2409C189.048 39.1005 187.882 39.5834 186.667 39.5834H185C183.784 39.5834 182.619 39.1005 181.759 38.2409C180.9 37.3814 180.417 36.2156 180.417 35V30C180.417 28.7844 180.9 27.6187 181.759 26.7591Z" fill="#4208B3"/>
<rect x="195" y="21" width="3" height="19" rx="1.5" fill="#4208B3"/>
<rect x="203" y="18" width="3" height="22" rx="1.5" fill="#4208B3"/>
<rect x="211" y="34" width="3" height="6" rx="1.5" fill="#4208B3"/>
<rect x="219" y="11" width="3" height="29" rx="1.5" fill="#4208B3"/>
<rect x="227" y="35" width="3" height="5" rx="1.5" fill="#4208B3"/>
<rect x="235" y="16" width="3" height="24" rx="1.5" fill="#4208B3"/>
<rect x="243" y="22" width="3" height="18" rx="1.5" fill="#4208B3"/>
<rect x="251" y="11" width="3" height="29" rx="1.5" fill="#4208B3"/>
<rect x="259" y="31" width="3" height="9" rx="1.5" fill="#4208B3"/>
<rect x="267" y="17" width="3" height="23" rx="1.5" fill="#4208B3"/>
<rect x="275" y="36" width="3" height="4" rx="1.5" fill="#4208B3"/>
<rect x="283" y="11" width="3" height="29" rx="1.5" fill="#4208B3"/>
<rect x="291" y="31" width="3" height="9" rx="1.5" fill="#4208B3"/>
<rect x="299" y="24" width="3" height="16" rx="1.5" fill="#4208B3"/>
<rect x="307" y="28" width="3" height="12" rx="1.5" fill="#4208B3"/>
<rect x="315" y="19" width="3" height="21" rx="1.5" fill="#4208B3"/>
<rect x="323" y="31" width="3" height="9" rx="1.5" fill="#4208B3"/>
<rect x="331" y="24" width="3" height="16" rx="1.5" fill="#4208B3"/>
<rect x="339" y="28" width="3" height="12" rx="1.5" fill="#4208B3"/>
<rect x="347" y="11" width="3" height="29" rx="1.5" fill="#4208B3"/>
</svg>
